<mxfile host="app.diagrams.net" agent="Mozilla/5.0 (X11; Ubuntu; Linux x86_64; rv:130.0) Gecko/20100101 Firefox/130.0" version="24.7.17">
  <diagram name="Page-1" id="lsPSnDqYoqIbOFXBCHFH">
    <mxGraphModel dx="1838" dy="563" grid="1" gridSize="10" guides="1" tooltips="1" connect="1" arrows="1" fold="1" page="1" pageScale="1" pageWidth="850" pageHeight="1100" math="0" shadow="0">
      <root>
        <mxCell id="0" />
        <mxCell id="1" parent="0" />
        <mxCell id="7qX01aAaALFJUYhMxIpQ-1" value="ESC" style="rounded=0;whiteSpace=wrap;html=1;" vertex="1" parent="1">
          <mxGeometry x="310" y="300" width="175" height="190" as="geometry" />
        </mxCell>
        <mxCell id="7qX01aAaALFJUYhMxIpQ-2" value="Motor" style="rounded=0;whiteSpace=wrap;html=1;" vertex="1" parent="1">
          <mxGeometry x="600" y="337.5" width="115" height="115" as="geometry" />
        </mxCell>
        <mxCell id="7qX01aAaALFJUYhMxIpQ-11" value="" style="verticalLabelPosition=bottom;shadow=0;dashed=0;align=center;html=1;verticalAlign=top;shape=mxgraph.electrical.transmission.3_line_bus;" vertex="1" parent="1">
          <mxGeometry x="485" y="350" width="115" height="90" as="geometry" />
        </mxCell>
        <mxCell id="7qX01aAaALFJUYhMxIpQ-12" value="&amp;nbsp;" style="text;whiteSpace=wrap;html=1;" vertex="1" parent="1">
          <mxGeometry x="100" y="490" width="40" height="40" as="geometry" />
        </mxCell>
        <mxCell id="7qX01aAaALFJUYhMxIpQ-13" value="" style="verticalLabelPosition=bottom;shadow=0;dashed=0;align=center;html=1;verticalAlign=top;shape=mxgraph.electrical.transmission.4_line_bus;" vertex="1" parent="1">
          <mxGeometry x="180" y="340" width="130" height="120" as="geometry" />
        </mxCell>
        <mxCell id="7qX01aAaALFJUYhMxIpQ-14" value="&amp;nbsp;" style="text;whiteSpace=wrap;html=1;" vertex="1" parent="1">
          <mxGeometry x="-180" y="250" width="40" height="40" as="geometry" />
        </mxCell>
        <mxCell id="7qX01aAaALFJUYhMxIpQ-15" value="" style="verticalLabelPosition=bottom;shadow=0;dashed=0;align=center;html=1;verticalAlign=top;shape=mxgraph.electrical.transmission.2_line_bus;direction=south;" vertex="1" parent="1">
          <mxGeometry x="380" y="490" width="40" height="130" as="geometry" />
        </mxCell>
        <mxCell id="7qX01aAaALFJUYhMxIpQ-16" value="Battery" style="rounded=0;whiteSpace=wrap;html=1;" vertex="1" parent="1">
          <mxGeometry x="360" y="620" width="80" height="40" as="geometry" />
        </mxCell>
        <mxCell id="7qX01aAaALFJUYhMxIpQ-18" value="&amp;nbsp;" style="text;whiteSpace=wrap;html=1;" vertex="1" parent="1">
          <mxGeometry x="60" y="460" width="40" height="40" as="geometry" />
        </mxCell>
        <mxCell id="7qX01aAaALFJUYhMxIpQ-19" value="MCU" style="rounded=0;whiteSpace=wrap;html=1;" vertex="1" parent="1">
          <mxGeometry x="130" y="305" width="50" height="190" as="geometry" />
        </mxCell>
        <mxCell id="7qX01aAaALFJUYhMxIpQ-20" value="&amp;nbsp;" style="text;whiteSpace=wrap;html=1;" vertex="1" parent="1">
          <mxGeometry x="-310" y="530" width="40" height="40" as="geometry" />
        </mxCell>
        <mxCell id="7qX01aAaALFJUYhMxIpQ-21" value="+" style="text;html=1;align=center;verticalAlign=middle;resizable=0;points=[];autosize=1;strokeColor=none;fillColor=none;" vertex="1" parent="1">
          <mxGeometry x="420" y="590" width="30" height="30" as="geometry" />
        </mxCell>
        <mxCell id="7qX01aAaALFJUYhMxIpQ-22" value="-" style="text;html=1;align=center;verticalAlign=middle;resizable=0;points=[];autosize=1;strokeColor=none;fillColor=none;" vertex="1" parent="1">
          <mxGeometry x="350" y="590" width="30" height="30" as="geometry" />
        </mxCell>
        <mxCell id="7qX01aAaALFJUYhMxIpQ-23" value="R" style="text;html=1;align=center;verticalAlign=middle;resizable=0;points=[];autosize=1;strokeColor=none;fillColor=none;" vertex="1" parent="1">
          <mxGeometry x="279" y="318" width="30" height="30" as="geometry" />
        </mxCell>
        <mxCell id="7qX01aAaALFJUYhMxIpQ-24" value="S" style="text;html=1;align=center;verticalAlign=middle;resizable=0;points=[];autosize=1;strokeColor=none;fillColor=none;" vertex="1" parent="1">
          <mxGeometry x="279" y="358" width="30" height="30" as="geometry" />
        </mxCell>
        <mxCell id="7qX01aAaALFJUYhMxIpQ-25" value="+" style="text;html=1;align=center;verticalAlign=middle;resizable=0;points=[];autosize=1;strokeColor=none;fillColor=none;" vertex="1" parent="1">
          <mxGeometry x="279" y="398" width="30" height="30" as="geometry" />
        </mxCell>
        <mxCell id="7qX01aAaALFJUYhMxIpQ-26" value="-" style="text;html=1;align=center;verticalAlign=middle;resizable=0;points=[];autosize=1;strokeColor=none;fillColor=none;" vertex="1" parent="1">
          <mxGeometry x="279" y="438" width="30" height="30" as="geometry" />
        </mxCell>
      </root>
    </mxGraphModel>
  </diagram>
</mxfile>
